<svg width="34" height="32" viewBox="0 0 34 32" fill="none" xmlns="http://www.w3.org/2000/svg">
<path d="M13.5359 6C15.0755 3.33333 18.9245 3.33333 20.4641 6L27.3923 18C28.9319 20.6667 27.0074 24 23.9282 24H10.0718C6.99259 24 5.06809 20.6667 6.6077 18L13.5359 6Z" fill="#FFD234"/>
<path d="M17.5741 17.372C17.7421 16.448 17.8621 14.84 17.8621 13.244V11.228H16.1341V13.244C16.1341 14.804 16.2421 16.412 16.3981 17.372H17.5741ZM16.9981 20.156C17.5141 20.156 17.9581 19.724 17.9581 19.208C17.9581 18.68 17.5141 18.248 16.9981 18.248C16.4581 18.248 16.0141 18.68 16.0141 19.208C16.0141 19.724 16.4581 20.156 16.9981 20.156Z" fill="black"/>
</svg>
