<svg width="64" height="64" viewBox="0 0 64 64" fill="none" xmlns="http://www.w3.org/2000/svg">
<path fill-rule="evenodd" clip-rule="evenodd" d="M22.0048 0H41.9952C54.0979 0 64 9.90192 64 22.0048V41.9952C64 54.0979 54.0981 64 41.9952 64H22.0048C9.90214 64 0 54.0981 0 41.9952V22.0048C0 9.90214 9.90192 0 22.0048 0V0ZM26.9947 33.1041L41.7863 18.3128C43.3421 16.7568 45.8873 16.7568 47.4428 18.3128L50.0128 20.8823C51.5686 22.4381 51.5686 24.9838 50.0128 26.5393L32.3931 44.159L29.8231 46.7291C28.2673 48.2848 25.7217 48.2848 24.1661 46.7291L21.5965 44.159L12.1131 34.6758C10.5574 33.1201 10.5574 30.5744 12.1131 29.0189L14.6832 26.4489C16.2389 24.8931 18.7841 24.8931 20.3397 26.4489L26.9947 33.1039V33.1041Z" fill="#0172DB"/>
</svg>
