<svg width="12" height="20" viewBox="0 0 12 20" fill="none" xmlns="http://www.w3.org/2000/svg">
<path fill-rule="evenodd" clip-rule="evenodd" d="M6.00055 0C7.64014 0 8.98139 1.43777 8.98139 3.1948V9.75434C8.98139 11.5116 7.63992 12.9491 6.00055 12.9491C4.36097 12.9491 3.01971 11.5114 3.01971 9.75434V3.1948C3.01971 1.43753 4.36119 0 6.00055 0V0ZM0.000662459 9.30419C0.000662459 8.84032 0.351545 8.46425 0.784351 8.46425C1.21716 8.46425 1.56804 8.84032 1.56804 9.30419C1.56804 10.8451 2.07703 12.2349 2.8998 13.2355C3.69873 14.207 4.79554 14.8082 6.00033 14.8082C7.20534 14.8082 8.30215 14.2073 9.10086 13.2355C9.92363 12.2349 10.4326 10.8451 10.4326 9.30419C10.4326 8.84032 10.7835 8.46425 11.2163 8.46425C11.6491 8.46425 12 8.84032 12 9.30419C12 11.2669 11.3413 13.0495 10.2763 14.3445C9.42171 15.384 8.30657 16.1122 7.05607 16.3775V17.7363H9.33206C9.91303 17.7363 10.388 18.2456 10.388 18.868V18.8682C10.388 19.4909 9.91281 20 9.33206 20H2.66794C2.08697 20 1.61198 19.4907 1.61198 18.8682V18.868C1.61198 18.2453 2.08719 17.7363 2.66794 17.7363H4.94393V16.3775C3.69343 16.1122 2.57851 15.384 1.72372 14.3445C0.658705 13.0493 0 11.2667 0 9.30419H0.000662459Z" fill="#0172DB"/>
</svg>
