<svg width="20" height="16" viewBox="0 0 20 16" fill="none" xmlns="http://www.w3.org/2000/svg">
<path fill-rule="evenodd" clip-rule="evenodd" d="M0 0H1.77001V0.451209C1.77001 0.997564 2.23942 1.4445 2.81324 1.4445H3.76096C4.33478 1.4445 4.80419 0.997564 4.80419 0.451209V0H15.2189V0.451209C15.2189 0.997564 15.6883 1.4445 16.2621 1.4445H17.2099C17.7837 1.4445 18.2531 0.997564 18.2531 0.451209V0H19.9999V16H18.2531V15.5488C18.2531 15.0025 17.7837 14.5555 17.2099 14.5555H16.2621C15.6883 14.5555 15.2189 15.0024 15.2189 15.5488V16H4.80419V15.5488C4.80419 15.0025 4.33478 14.5555 3.76096 14.5555H2.81324C2.23942 14.5555 1.77001 15.0024 1.77001 15.5488V16H0V0ZM8.63215 5.03015L12.3193 7.66074C12.5812 7.84755 12.5812 8.15245 12.3193 8.33926L8.63215 10.9699C8.43575 11.1099 8.15595 11.1497 7.89934 11.0738C7.64267 10.998 7.48426 10.8287 7.48426 10.6306V5.36932C7.48426 5.17122 7.64267 5.00203 7.89934 4.92616C8.15595 4.85035 8.43575 4.88999 8.63215 5.03015ZM2.81324 9.2221H3.76096C4.33478 9.2221 4.80419 9.66904 4.80419 10.2154V11.1178C4.80419 11.6642 4.33478 12.1111 3.76096 12.1111H2.81324C2.23942 12.1111 1.77001 11.6642 1.77001 11.1178V10.2154C1.77001 9.6691 2.23942 9.2221 2.81324 9.2221ZM2.81324 3.88877H3.76096C4.33478 3.88877 4.80419 4.33571 4.80419 4.88206V5.78448C4.80419 6.33084 4.33478 6.77778 3.76096 6.77778H2.81324C2.23942 6.77778 1.77001 6.33084 1.77001 5.78448V4.88206C1.77001 4.33577 2.23942 3.88877 2.81324 3.88877ZM16.2622 9.2221H17.2099C17.7837 9.2221 18.2531 9.66904 18.2531 10.2154V11.1178C18.2531 11.6642 17.7837 12.1111 17.2099 12.1111H16.2622C15.6884 12.1111 15.219 11.6642 15.219 11.1178V10.2154C15.219 9.6691 15.6884 9.2221 16.2622 9.2221ZM16.2622 3.88877H17.2099C17.7837 3.88877 18.2531 4.33571 18.2531 4.88206V5.78448C18.2531 6.33084 17.7837 6.77778 17.2099 6.77778H16.2622C15.6884 6.77778 15.219 6.33084 15.219 5.78448V4.88206C15.219 4.33577 15.6884 3.88877 16.2622 3.88877Z" fill="#0172DB"/>
</svg>
