<svg width="24" height="24" viewBox="0 0 24 24" fill="none" xmlns="http://www.w3.org/2000/svg">
<path d="M19.14 21.75H4.86C4.16779 21.75 3.50392 21.475 3.01445 20.9855C2.52498 20.4961 2.25 19.8322 2.25 19.14V4.86C2.25 4.16779 2.52498 3.50392 3.01445 3.01445C3.50392 2.52498 4.16779 2.25 4.86 2.25H19.14C19.8322 2.25 20.4961 2.52498 20.9855 3.01445C21.475 3.50392 21.75 4.16779 21.75 4.86V19.14C21.75 19.8322 21.475 20.4961 20.9855 20.9855C20.4961 21.475 19.8322 21.75 19.14 21.75ZM4.86 3.75C4.56561 3.75 4.28328 3.86695 4.07511 4.07511C3.86695 4.28328 3.75 4.56561 3.75 4.86V19.14C3.75 19.4344 3.86695 19.7167 4.07511 19.9249C4.28328 20.1331 4.56561 20.25 4.86 20.25H19.14C19.4344 20.25 19.7167 20.1331 19.9249 19.9249C20.1331 19.7167 20.25 19.4344 20.25 19.14V4.86C20.25 4.56561 20.1331 4.28328 19.9249 4.07511C19.7167 3.86695 19.4344 3.75 19.14 3.75H4.86Z" fill="#0172DB"/>
<path d="M3.0001 18.8101C2.89207 18.8098 2.78535 18.7864 2.68706 18.7416C2.58877 18.6967 2.50117 18.6315 2.4301 18.5501C2.36613 18.4747 2.3177 18.3874 2.28759 18.2933C2.25747 18.1991 2.24628 18.0999 2.25464 18.0014C2.26301 17.9029 2.29077 17.807 2.33632 17.7192C2.38188 17.6315 2.44434 17.5536 2.5201 17.4901L7.6401 13.1701C8.02237 12.8475 8.51167 12.6798 9.01149 12.7001C9.5113 12.7205 9.98534 12.9274 10.3401 13.2801L12.7701 15.7101C12.8607 15.7876 12.9759 15.8301 13.0951 15.8301C13.2143 15.8301 13.3295 15.7876 13.4201 15.7101L15.7801 14.0001C16.1298 13.7309 16.5588 13.5849 17.0001 13.5849C17.4414 13.5849 17.8704 13.7309 18.2201 14.0001L21.4701 16.5901C21.5476 16.6518 21.6121 16.7282 21.6601 16.8149C21.7081 16.9015 21.7385 16.9968 21.7496 17.0952C21.7608 17.1937 21.7524 17.2933 21.7251 17.3885C21.6977 17.4837 21.6518 17.5726 21.5901 17.6501C21.5284 17.7276 21.452 17.7921 21.3653 17.8401C21.2787 17.8881 21.1834 17.9185 21.085 17.9296C20.9865 17.9408 20.8869 17.9324 20.7917 17.9051C20.6965 17.8777 20.6076 17.8318 20.5301 17.7701L17.2901 15.1701C17.2027 15.1028 17.0954 15.0663 16.9851 15.0663C16.8748 15.0663 16.7675 15.1028 16.6801 15.1701L14.3201 17.0001C13.936 17.2885 13.4608 17.4291 12.9816 17.396C12.5023 17.363 12.051 17.1586 11.7101 16.8201L9.2801 14.3401C9.18822 14.2572 9.06886 14.2113 8.9451 14.2113C8.82134 14.2113 8.70198 14.2572 8.6101 14.3401L3.4801 18.6401C3.34615 18.7533 3.17547 18.8138 3.0001 18.8101Z" fill="#0172DB"/>
<path d="M15 11.75C14.4561 11.75 13.9244 11.5887 13.4722 11.2865C13.0199 10.9844 12.6675 10.5549 12.4593 10.0524C12.2512 9.54988 12.1967 8.99695 12.3028 8.4635C12.409 7.93006 12.6709 7.44005 13.0555 7.05546C13.4401 6.67086 13.9301 6.40895 14.4635 6.30284C14.997 6.19673 15.5499 6.25119 16.0524 6.45933C16.5549 6.66747 16.9844 7.01995 17.2865 7.47218C17.5887 7.92442 17.75 8.4561 17.75 9C17.75 9.72935 17.4603 10.4288 16.9445 10.9445C16.4288 11.4603 15.7293 11.75 15 11.75ZM15 7.75C14.7528 7.75 14.5111 7.82331 14.3055 7.96066C14.1 8.09802 13.9398 8.29324 13.8452 8.52165C13.7505 8.75005 13.7258 9.00139 13.774 9.24386C13.8223 9.48634 13.9413 9.70907 14.1161 9.88388C14.2909 10.0587 14.5137 10.1778 14.7561 10.226C14.9986 10.2742 15.2499 10.2495 15.4784 10.1549C15.7068 10.0602 15.902 9.90003 16.0393 9.69446C16.1767 9.4889 16.25 9.24723 16.25 9C16.25 8.66848 16.1183 8.35054 15.8839 8.11612C15.6495 7.8817 15.3315 7.75 15 7.75Z" fill="#0172DB"/>
</svg>
