<svg width="22" height="22" viewBox="0 0 22 22" fill="none" xmlns="http://www.w3.org/2000/svg">
<path fill-rule="evenodd" clip-rule="evenodd" d="M11 0C13.2388 0 15.07 1.83114 15.07 4.0699V6.9305H17.93C20.1688 6.9305 22 8.76164 22 11.0004C22 13.2392 20.1688 15.0703 17.93 15.0703H15.07V17.9301C15.07 20.1689 13.2388 22 11 22C8.76115 22 6.92995 20.1689 6.92995 17.9301V15.0703H4.07005C1.8312 15.0703 0 13.2392 0 11.0004C0 8.76164 1.8312 6.9305 4.07005 6.9305H6.92995V4.0699C6.92995 1.83114 8.76115 0 11 0V0Z" fill="white"/>
</svg>
