<svg width="35" height="17" viewBox="0 0 35 17" fill="none" xmlns="http://www.w3.org/2000/svg">
<path fill-rule="evenodd" clip-rule="evenodd" d="M8.68217 0C13.4766 0 17.3643 3.80615 17.3643 8.5C17.3643 13.1939 13.4766 17 8.68217 17C3.88772 17 0 13.1939 0 8.5C0 3.80615 3.88772 0 8.68217 0ZM26.3178 0C31.1123 0 35 3.80615 35 8.5C35 13.1939 31.1123 17 26.3178 17C25.4986 17 24.7074 16.8886 23.9565 16.6812C27.6044 15.6736 30.2773 12.3918 30.2773 8.5C30.2773 4.60645 27.6044 1.32641 23.9565 0.31875C24.7074 0.111391 25.5004 0 26.3178 0ZM17.0843 0C21.8787 0 25.7664 3.80615 25.7664 8.5C25.7664 13.1939 21.8787 17 17.0843 17C16.2651 17 15.4739 16.8886 14.7229 16.6812C18.3708 15.6736 21.0438 12.3918 21.0438 8.5C21.0438 4.60645 18.3708 1.32641 14.7229 0.31875C15.4739 0.111391 16.2668 0 17.0843 0Z" fill="white"/>
</svg>
