<svg width="28" height="21" viewBox="0 0 28 21" fill="none" xmlns="http://www.w3.org/2000/svg">
<path fill-rule="evenodd" clip-rule="evenodd" d="M15.3554 3.68943H23.4509C25.953 3.68943 28 5.76295 28 8.29741V16.392C28 18.9265 25.953 21 23.4509 21H4.54914C2.04704 21 0 18.9265 0 16.392C0 12.14 0 7.89616 0 3.64711C0 1.6412 1.62024 0 3.60054 0H11.7547C13.735 0 15.3553 1.6412 15.3553 3.64711V3.68943H15.3554ZM14 6.97617C16.7883 6.97617 19.0485 9.26562 19.0485 12.09C19.0485 14.9143 16.7883 17.2038 14 17.2038C11.2117 17.2038 8.9515 14.9143 8.9515 12.09C8.9515 9.26562 11.2117 6.97617 14 6.97617ZM4.23679 1.66224C5.12821 1.66224 5.85076 2.39425 5.85076 3.29709C5.85076 4.20004 5.1281 4.93194 4.23679 4.93194C3.34536 4.93194 2.62281 4.19993 2.62281 3.29709C2.62281 2.39414 3.34547 1.66224 4.23679 1.66224Z" fill="white"/>
</svg>
