<svg width="120" height="120" viewBox="0 0 120 120" fill="none" xmlns="http://www.w3.org/2000/svg">
<circle cx="60" cy="60" r="60" fill="#DAECFD"/>
<path d="M69.4952 28.5H49.5048C37.4019 28.5 27.5 38.4021 27.5 50.5048V70.4952C27.5 82.5981 37.4021 92.5 49.5048 92.5H69.4952C81.5981 92.5 91.5 82.5979 91.5 70.4952V50.5048C91.5 38.4019 81.5979 28.5 69.4952 28.5Z" fill="#0C93CD"/>
<rect x="41" y="40" width="38" height="42" fill="white"/>
<path fill-rule="evenodd" clip-rule="evenodd" d="M59.5 29C42.1034 29 28 43.1034 28 60.5C28 77.8966 42.1034 92 59.5 92C76.8966 92 91 77.8966 91 60.5C91 43.1034 76.8966 29 59.5 29ZM58.0682 43.3182C57.3087 43.3182 56.5803 43.6199 56.0433 44.1569C55.5063 44.694 55.2045 45.4223 55.2045 46.1818C55.2045 46.9413 55.5063 47.6697 56.0433 48.2067C56.5803 48.7438 57.3087 49.0455 58.0682 49.0455H59.5C60.2595 49.0455 60.9879 48.7438 61.5249 48.2067C62.0619 47.6697 62.3636 46.9413 62.3636 46.1818C62.3636 45.4223 62.0619 44.694 61.5249 44.1569C60.9879 43.6199 60.2595 43.3182 59.5 43.3182H58.0682ZM53.7727 54.7727C53.0132 54.7727 52.2849 55.0744 51.7478 55.6115C51.2108 56.1485 50.9091 56.8769 50.9091 57.6364C50.9091 58.3958 51.2108 59.1242 51.7478 59.6613C52.2849 60.1983 53.0132 60.5 53.7727 60.5H56.6364V69.0909H53.7727C53.0132 69.0909 52.2849 69.3926 51.7478 69.9296C51.2108 70.4667 50.9091 71.1951 50.9091 71.9545C50.9091 72.714 51.2108 73.4424 51.7478 73.9794C52.2849 74.5165 53.0132 74.8182 53.7727 74.8182H65.2273C65.9868 74.8182 66.7151 74.5165 67.2522 73.9794C67.7892 73.4424 68.0909 72.714 68.0909 71.9545C68.0909 71.1951 67.7892 70.4667 67.2522 69.9296C66.7151 69.3926 65.9868 69.0909 65.2273 69.0909H62.3636V57.6364C62.3636 56.8769 62.0619 56.1485 61.5249 55.6115C60.9879 55.0744 60.2595 54.7727 59.5 54.7727H53.7727Z" fill="#0172DB"/>
</svg>
