<svg width="77" height="77" viewBox="0 0 77 77" fill="none" xmlns="http://www.w3.org/2000/svg">
<path fill-rule="evenodd" clip-rule="evenodd" d="M38.5236 0.95752C59.4604 0.95752 76.4331 17.891 76.4331 38.7794C76.4331 59.6678 59.4604 76.6013 38.5236 76.6013C17.587 76.6013 0.614258 59.6678 0.614258 38.7794C0.614258 17.891 17.587 0.95752 38.5236 0.95752ZM33.8756 46.9455C34.2365 47.3054 34.8206 47.3054 35.1812 46.9455C35.5414 46.5862 35.5414 46.003 35.1812 45.6435L27.665 38.1446H27.6618L19.5431 30.0494L19.5445 30.0478C18.4853 28.9912 17.9553 27.5967 17.9553 26.2014C17.9553 24.8041 18.4838 23.4094 19.5413 22.3549H19.5445L22.0424 19.8629H22.043C23.102 18.8064 24.4994 18.2774 25.8976 18.2774C27.2972 18.2774 28.6954 18.806 29.7544 19.8611L29.7526 19.8629H29.7531L48.8672 38.9327C38.5727 50.0666 29.7675 55.563 24.1997 56.7939C22.3236 57.2084 20.8832 57.1218 19.9548 56.592C19.1384 56.1258 18.7124 55.2432 18.7452 53.9951C18.8244 50.9784 21.3478 46.1858 27.0242 40.11L33.8756 46.9455ZM48.0405 46.7181C48.3836 46.7181 48.7275 46.8488 48.989 47.1101L48.9936 47.1144C49.2524 47.3729 49.3827 47.7128 49.3827 48.0526C49.3827 48.392 49.2528 48.7328 48.9936 48.9939V48.9944L48.989 48.9981V48.9986C48.727 49.2601 48.3836 49.3907 48.0405 49.3907C47.6976 49.3907 47.3543 49.2601 47.0926 48.9986L47.0921 48.9981C46.8325 48.7365 46.7026 48.3939 46.7026 48.0526C46.7026 47.7111 46.8325 47.369 47.0921 47.1101C47.3543 46.8488 47.6976 46.7181 48.0405 46.7181ZM29.0065 28.1433C29.3496 28.1433 29.6931 28.2741 29.9551 28.5352L29.9553 28.536C30.2168 28.7977 30.3483 29.1398 30.3483 29.4816C30.3483 29.8239 30.2168 30.1665 29.9553 30.4278V30.4281H29.9551C29.6929 30.6891 29.3496 30.8205 29.0065 30.8205C28.6635 30.8205 28.3195 30.6891 28.0582 30.4281V30.4278C27.7961 30.1665 27.665 29.8239 27.665 29.4816C27.665 29.1398 27.7961 28.7968 28.0582 28.536V28.5352C28.3195 28.2741 28.6635 28.1433 29.0065 28.1433ZM35.7658 28.5352C36.0275 28.7968 36.1588 29.1398 36.1588 29.4816C36.1588 29.8239 36.0275 30.1665 35.7658 30.4281C35.5036 30.6891 35.161 30.8205 34.819 30.8205C34.4775 30.8205 34.1351 30.6891 33.8732 30.4281H33.8729C33.611 30.167 33.4801 29.8239 33.4801 29.4816C33.4801 29.1398 33.611 28.7968 33.8729 28.5352C34.1351 28.2741 34.4775 28.1433 34.819 28.1433C35.1614 28.1433 35.5036 28.2741 35.7658 28.5352ZM36.8801 41.1301L36.8805 41.1305C37.1424 41.3918 37.2731 41.7342 37.2731 42.0765C37.2731 42.418 37.1424 42.7611 36.8805 43.022L36.8801 43.0227L36.8796 43.0231C36.6176 43.2847 36.2745 43.4148 35.9319 43.4148C35.5892 43.4148 35.2457 43.2847 34.9837 43.0231L34.9835 43.0227L34.983 43.022C34.7213 42.7611 34.5905 42.418 34.5905 42.0765C34.5905 41.7342 34.7213 41.3918 34.983 41.1305L34.9835 41.1301L34.9837 41.1296C35.2457 40.8684 35.5892 40.7382 35.9319 40.7382C36.2745 40.7382 36.6176 40.8684 36.8796 41.1296L36.8801 41.1301ZM30.0089 34.2788C30.2706 34.5403 30.4019 34.8831 30.4019 35.2252C30.4019 35.5675 30.2706 35.9103 30.0089 36.1714H30.0084C29.7489 36.4303 29.4064 36.5603 29.0642 36.5603C28.7221 36.5603 28.3787 36.4303 28.1165 36.1714C27.8541 35.9103 27.723 35.5675 27.723 35.2252C27.723 34.8831 27.8541 34.5403 28.1165 34.2788L28.12 34.2751C28.3814 34.0167 28.724 33.8869 29.0644 33.8869C29.4049 33.8869 29.7457 34.0167 30.0045 34.2751H30.0052L30.0089 34.2788ZM42.2439 41.2962C42.5865 41.2962 42.93 41.4268 43.1926 41.6883L43.1961 41.6923C43.4552 41.9531 43.5856 42.2949 43.5856 42.634C43.5856 42.9741 43.4552 43.3139 43.1961 43.5725L43.1926 43.5765C42.93 43.8378 42.5865 43.9686 42.2439 43.9686C41.901 43.9686 41.5574 43.8378 41.2948 43.5765V43.5761C41.0359 43.3167 40.9052 42.9754 40.9052 42.634C40.9052 42.2927 41.0353 41.9504 41.2948 41.6884V41.6883C41.5574 41.4268 41.901 41.2962 42.2439 41.2962ZM36.3251 34.8326C36.5873 35.0939 36.7186 35.4368 36.7186 35.7791C36.7186 36.1213 36.5873 36.4644 36.3251 36.7253C36.0628 36.9868 35.7198 37.1174 35.3767 37.1174C35.0336 37.1174 34.6904 36.9868 34.4281 36.7253C34.1666 36.4644 34.035 36.1213 34.035 35.7791C34.035 35.4368 34.1666 35.0939 34.4281 34.8326C34.6904 34.5715 35.0336 34.4405 35.3767 34.4405C35.7198 34.4405 36.0632 34.5715 36.3251 34.8326ZM42.6374 35.3865C42.8993 35.648 43.0302 35.9908 43.0302 36.3329C43.0302 36.6749 42.8993 37.018 42.6374 37.2794H42.6369C42.3752 37.5402 42.0314 37.6714 41.6888 37.6714C41.3457 37.6714 41.0022 37.5402 40.7401 37.2794V37.2789C40.4785 37.0175 40.3469 36.6749 40.3469 36.3329C40.3469 35.9908 40.4785 35.6481 40.7401 35.3865C41.0027 35.1271 41.3457 34.9978 41.6888 34.9978C42.0309 34.9978 42.3747 35.1271 42.6369 35.3865H42.6374ZM50.1097 37.5686L31.0582 18.561V18.5607H31.0543C29.6342 17.1436 27.7645 16.4348 25.8976 16.4348C24.0282 16.4348 22.1577 17.1436 20.7374 18.5607L20.7369 18.561L18.2392 21.0526L18.2414 21.0548C16.8195 22.4736 16.1084 24.3392 16.1084 26.2014C16.1084 28.0665 16.8193 29.9334 18.2392 31.35H18.2426L25.7226 38.8083C19.684 45.2651 16.9961 50.521 16.9064 53.9522C16.8544 55.9291 17.6041 57.3714 19.039 58.1899C20.3624 58.9443 22.2513 59.1041 24.5967 58.5857C28.0967 57.8123 32.7764 55.4773 38.2323 51.2886L45.9896 59.0317L45.9927 59.0357C47.4135 60.4501 49.2829 61.1583 51.1502 61.1583C53.0166 61.1583 54.8863 60.4501 56.3064 59.0357H56.3103L58.808 56.5437C60.2286 55.1269 60.9389 53.2602 60.9389 51.395C60.9389 49.5339 60.2286 47.6684 58.808 46.2496L54.9808 42.4269C54.6224 42.0676 54.0393 42.0661 53.6791 42.4237C53.3183 42.7807 53.317 43.3625 53.6754 43.7224L57.5027 47.5451L57.5064 47.5484C58.5636 48.6032 59.0919 49.9976 59.0919 51.395C59.0919 52.7901 58.5622 54.1846 57.5027 55.2413L55.0047 57.7333L55.0065 57.7351C53.948 58.788 52.5495 59.3154 51.1502 59.3154C49.7488 59.3154 48.3504 58.788 47.2911 57.7333L39.6866 50.1424C43.9415 46.7039 48.6246 42.1766 53.559 36.4277C58.692 30.4486 60.3588 25.2971 59.8127 21.7578C59.5769 20.2331 58.9384 18.9858 57.9885 18.0708C57.0366 17.1548 55.786 16.5888 54.3277 16.4256C51.1257 16.0679 46.8574 17.6968 42.6159 21.9297L42.614 21.9281L42.0228 22.5177C41.6626 22.8773 41.6626 23.4599 42.0228 23.82C42.3834 24.1794 42.9679 24.1794 43.3281 23.82L43.9191 23.2306V23.227C47.725 19.4284 51.4264 17.9522 54.1259 18.2536C55.1724 18.3702 56.0554 18.7633 56.712 19.3954C57.3696 20.0281 57.8157 20.9191 57.9875 22.0314C58.462 25.1053 56.8999 29.7122 52.1598 35.2334C51.471 36.0362 50.7873 36.8144 50.1097 37.5686ZM38.5236 3.06727C58.2923 3.06727 74.3185 19.0564 74.3185 38.7794C74.3185 58.5022 58.2923 74.4914 38.5236 74.4914C18.7551 74.4914 2.7289 58.5022 2.7289 38.7794C2.7289 19.0564 18.7551 3.06727 38.5236 3.06727Z" fill="#0172DB"/>
</svg>
