<svg width="116" height="27" viewBox="0 0 116 27" fill="none" xmlns="http://www.w3.org/2000/svg">
<path d="M0.835748 5.26811C1.32104 5.75227 1.91088 6.02932 2.60444 6.02932C3.33246 6.02932 3.92213 5.75227 4.40759 5.26811C4.89288 4.7841 5.13595 4.19528 5.13595 3.50349C5.13595 2.77665 4.89288 2.18867 4.40759 1.704C3.92179 1.18529 3.33246 0.943115 2.60444 0.943115C1.91088 0.943115 1.32104 1.18529 0.835748 1.704C0.35029 2.18867 0.0727539 2.77665 0.0727539 3.50349C0.0727539 4.19528 0.35029 4.78377 0.835748 5.26811ZM0.696725 26.2698H4.54627V9.0742H0.696725V26.2698ZM6.96484 1.04692L14.5595 26.2698H19.0331L25.102 6.54838H25.1366L31.1705 26.2698H35.679L43.4126 1.04692H39.2855L33.4945 20.6646L27.3559 1.04692H22.9517L16.8826 20.6646L11.1953 1.04692H6.96484ZM41.0397 17.6546C41.0397 19.3154 41.4495 20.8093 42.2883 22.187C43.1115 23.5401 44.2001 24.6376 45.6176 25.4048C47.0071 26.1575 48.4974 26.5556 50.1602 26.5813C55.0846 26.6572 59.3224 22.5676 59.2463 17.5857C59.2214 15.9267 58.8493 14.4239 58.0328 13.0527C57.2219 11.6923 56.0888 10.63 54.7032 9.86998C53.3174 9.1101 51.7899 8.72789 50.1952 8.72789C48.5306 8.72789 47.0068 9.11764 45.6176 9.86998C44.2004 10.6374 43.1115 11.7349 42.2883 13.0876C41.4499 14.4655 41.0397 15.9938 41.0397 17.6546ZM44.9932 17.5857C44.9932 16.0627 45.4437 14.7833 46.4147 13.745C47.3863 12.7072 48.6346 12.188 50.1602 12.188C51.6862 12.188 52.9178 12.7245 53.8708 13.7795C54.8229 14.8326 55.3272 16.1325 55.3272 17.6546C55.3272 19.1767 54.8415 20.4596 53.9057 21.4952C52.9368 22.5676 51.7208 23.0866 50.1952 23.0866C48.6687 23.0866 47.4205 22.5327 46.4497 21.4604C45.479 20.388 44.9932 19.0729 44.9932 17.5857ZM65.5712 9.0742H61.7218V19.6617C61.7218 20.9723 61.9407 22.15 62.4152 23.1904C63.3596 25.2613 65.3981 26.6158 68.1721 26.6158C68.6924 26.6158 69.2483 26.5749 69.7675 26.4426C70.3194 26.302 70.9402 26.0478 71.6403 25.6124C72.3241 25.1865 72.9232 24.6439 73.4431 23.9516V26.2698H77.1889V9.0742H73.3394V18.658C73.3394 19.9346 72.9923 21.0109 72.2646 21.8067C71.5366 22.6019 70.5651 22.9831 69.3513 22.9831C66.8197 22.9831 65.5712 21.2876 65.5712 18.6924V9.0742ZM91.456 26.2698H95.2711V15.6824C95.2711 13.6412 94.7402 11.9507 93.6409 10.6656C92.5249 9.35998 90.9357 8.72789 88.8208 8.72789C88.3004 8.72789 87.7408 8.78675 87.2252 8.90096C86.67 9.02456 86.0783 9.31856 85.3874 9.73128C84.6962 10.1438 84.0692 10.7001 83.5493 11.3919V9.0742H79.8038V26.2698H83.6534V16.6857C83.6534 15.3709 84.0027 14.3305 84.7285 13.5374C85.4543 12.7438 86.4278 12.3609 87.6414 12.3609C90.1731 12.3609 91.456 14.0613 91.456 16.6512V26.2698ZM97.353 17.6546C97.353 19.1767 97.7234 20.6401 98.4278 21.9794C99.1391 23.3328 100.169 24.4303 101.48 25.2665C102.766 26.0867 104.254 26.5464 105.849 26.5464C106.37 26.5464 106.997 26.4396 107.652 26.2698C108.308 26.1 109.055 25.8029 109.837 25.3354C110.61 24.8745 111.19 24.2627 111.606 23.5709V26.2698H115.386V0.991077H111.537V11.5306C110.947 10.5963 110.068 9.92247 108.97 9.45457C107.889 8.99371 106.89 8.72789 105.953 8.72789C103.352 8.72789 101.051 9.86427 99.6069 11.5652C98.178 13.2489 97.353 15.4402 97.353 17.6546ZM111.571 17.6546C111.571 19.1767 111.126 20.4333 110.15 21.4952C109.19 22.5379 107.93 23.0521 106.404 23.0521C104.878 23.0521 103.652 22.5379 102.693 21.4952C101.717 20.4333 101.237 19.1767 101.237 17.6546C101.237 16.1325 101.717 14.841 102.693 13.7795C103.652 12.7364 104.878 12.2226 106.404 12.2226C107.93 12.2226 109.19 12.7364 110.15 13.7795C111.126 14.841 111.571 16.1325 111.571 17.6546Z" fill="#0172DB"/>
</svg>
